<?xml version="1.0" encoding="UTF-8" standalone="no"?>
<svg
   width="100"
   viewBox="0 0 75 75"
   height="100"
   version="1.0"
   id="svg3"
   sodipodi:docname="facebook-logo-color.svg"
   inkscape:version="1.3.2 (091e20e, 2023-11-25)"
   xmlns:inkscape="http://www.inkscape.org/namespaces/inkscape"
   xmlns:sodipodi="http://sodipodi.sourceforge.net/DTD/sodipodi-0.dtd"
   xmlns="http://www.w3.org/2000/svg"
   xmlns:svg="http://www.w3.org/2000/svg">
  <sodipodi:namedview
     id="namedview3"
     pagecolor="#ffffff"
     bordercolor="#000000"
     borderopacity="0.25"
     inkscape:showpageshadow="2"
     inkscape:pageopacity="0.0"
     inkscape:pagecheckerboard="0"
     inkscape:deskcolor="#d1d1d1"
     inkscape:zoom="2.36"
     inkscape:cx="49.788136"
     inkscape:cy="50"
     inkscape:window-width="1416"
     inkscape:window-height="673"
     inkscape:window-x="0"
     inkscape:window-y="25"
     inkscape:window-maximized="0"
     inkscape:current-layer="svg3" />
  <defs
     id="defs1">
    <clipPath
       id="a">
      <path
         d="M21.445 7.5h32.25V75h-32.25Zm0 0"
         id="path1" />
    </clipPath>
  </defs>
  <path
     fill="#f36"
     d="M75 37.5c0 1.227-.063 2.453-.184 3.676a35.873 35.873 0 0 1-.539 3.64 36.409 36.409 0 0 1-.894 3.57 38.103 38.103 0 0 1-1.238 3.466 37.42 37.42 0 0 1-1.575 3.324 36.828 36.828 0 0 1-1.89 3.156 37.805 37.805 0 0 1-2.192 2.957c-.781.95-1.605 1.86-2.472 2.727a38.047 38.047 0 0 1-2.727 2.472 37.805 37.805 0 0 1-2.957 2.192 36.828 36.828 0 0 1-3.156 1.89 37.42 37.42 0 0 1-3.324 1.575 38.103 38.103 0 0 1-3.465 1.238c-1.176.36-2.367.656-3.57.894a35.873 35.873 0 0 1-3.641.54c-1.223.12-2.45.183-3.676.183-1.23 0-2.453-.063-3.676-.184a35.711 35.711 0 0 1-3.64-.539 37.686 37.686 0 0 1-7.035-2.133 37.42 37.42 0 0 1-3.325-1.574 36.895 36.895 0 0 1-6.113-4.082 38.047 38.047 0 0 1-2.727-2.472 37.143 37.143 0 0 1-4.664-5.684 36.828 36.828 0 0 1-1.89-3.156 36.356 36.356 0 0 1-1.575-3.324 38.132 38.132 0 0 1-1.242-3.465 38.774 38.774 0 0 1-.894-3.57A37.29 37.29 0 0 1 0 37.5c0-1.231.059-2.454.18-3.677.12-1.222.3-2.437.539-3.64.242-1.204.539-2.395.894-3.57a37.713 37.713 0 0 1 4.707-9.95 38.488 38.488 0 0 1 2.192-2.953c.781-.95 1.601-1.86 2.472-2.727a37.143 37.143 0 0 1 2.727-2.472 36.895 36.895 0 0 1 6.113-4.082 37.713 37.713 0 0 1 6.79-2.816 38.774 38.774 0 0 1 3.57-.895 38.031 38.031 0 0 1 3.64-.54A37.231 37.231 0 0 1 37.5 0a37.29 37.29 0 0 1 7.316.719c1.204.242 2.395.539 3.57.894 1.173.36 2.329.77 3.466 1.242 1.132.47 2.242.993 3.324 1.575a36.828 36.828 0 0 1 3.156 1.89 37.143 37.143 0 0 1 5.684 4.664 38.047 38.047 0 0 1 2.472 2.727 36.895 36.895 0 0 1 4.082 6.113 37.42 37.42 0 0 1 1.575 3.324 37.686 37.686 0 0 1 2.132 7.036c.243 1.203.422 2.418.54 3.64.12 1.223.183 2.446.183 3.676Zm0 0"
     id="path2"
     style="fill:#6d0796;fill-opacity:1" />
  <g
     clip-path="url(#a)"
     id="g3">
    <path
       fill="#fff"
       d="M46.254 18.816h7.441V7.598h-9.5v.043c-12.492.457-15.066 7.453-15.28 14.851h-.028v7.785h-7.442v11.235h7.442v34.14h13.347v-34.14h9.57l1.891-11.235h-11.46V23.31c0-2.477 1.66-4.493 4.019-4.493Zm0 0"
       id="path3" />
  </g>
</svg>
