<?xml version="1.0" encoding="UTF-8" standalone="no"?>
<svg
   width="100"
   viewBox="0 0 75 75"
   height="100"
   version="1.0"
   id="svg10"
   sodipodi:docname="instagram-logo-color.svg"
   inkscape:version="1.3.2 (091e20e, 2023-11-25)"
   xmlns:inkscape="http://www.inkscape.org/namespaces/inkscape"
   xmlns:sodipodi="http://sodipodi.sourceforge.net/DTD/sodipodi-0.dtd"
   xmlns="http://www.w3.org/2000/svg"
   xmlns:svg="http://www.w3.org/2000/svg">
  <sodipodi:namedview
     id="namedview10"
     pagecolor="#ffffff"
     bordercolor="#000000"
     borderopacity="0.25"
     inkscape:showpageshadow="2"
     inkscape:pageopacity="0.0"
     inkscape:pagecheckerboard="0"
     inkscape:deskcolor="#d1d1d1"
     inkscape:zoom="2.36"
     inkscape:cx="49.788136"
     inkscape:cy="50.211864"
     inkscape:window-width="1368"
     inkscape:window-height="680"
     inkscape:window-x="0"
     inkscape:window-y="25"
     inkscape:window-maximized="0"
     inkscape:current-layer="svg10" />
  <defs
     id="defs5">
    <clipPath
       id="a">
      <path
         d="M0 0h75v74.992H0Zm0 0"
         id="path1" />
    </clipPath>
    <clipPath
       id="b">
      <path
         d="M48.61 18.52h7.5v7.5h-7.5Zm0 0"
         id="path2" />
    </clipPath>
    <clipPath
       id="c">
      <path
         d="M11.352 11.352h52.5v52.5h-52.5Zm0 0"
         id="path3" />
    </clipPath>
    <clipPath
       id="d">
      <path
         d="M24.41 24.41h26.25v26.25H24.41Zm0 0"
         id="path4" />
    </clipPath>
    <clipPath
       id="e">
      <path
         d="M23.746 23.746h27.75v27.75h-27.75Zm0 0"
         id="path5" />
    </clipPath>
  </defs>
  <g
     clip-path="url(#a)"
     id="g6"
     style="fill:#6d0796;fill-opacity:1">
    <path
       fill="#f36"
       d="M75 37.492c0 1.23-.063 2.453-.184 3.676a35.711 35.711 0 0 1-.539 3.64 37.686 37.686 0 0 1-2.133 7.035 37.44 37.44 0 0 1-5.656 9.438c-.781.95-1.605 1.86-2.472 2.727a36.282 36.282 0 0 1-2.727 2.472 37.903 37.903 0 0 1-6.113 4.086 38.132 38.132 0 0 1-6.79 2.813 38.774 38.774 0 0 1-3.57.894 37.29 37.29 0 0 1-7.316.719c-1.23 0-2.453-.058-3.676-.18a38.032 38.032 0 0 1-3.64-.539 38.774 38.774 0 0 1-3.57-.894 37.713 37.713 0 0 1-9.95-4.707 36.535 36.535 0 0 1-2.953-2.192 36.282 36.282 0 0 1-2.727-2.472 37.143 37.143 0 0 1-2.472-2.727 37.44 37.44 0 0 1-5.656-9.438 37.713 37.713 0 0 1-1.243-3.464 38.774 38.774 0 0 1-.894-3.57 38.031 38.031 0 0 1-.54-3.641A37.231 37.231 0 0 1 0 37.492a37.29 37.29 0 0 1 .719-7.316 37.303 37.303 0 0 1 2.137-7.031 35.943 35.943 0 0 1 1.574-3.329 36.828 36.828 0 0 1 1.89-3.156 37.143 37.143 0 0 1 4.664-5.684 38.047 38.047 0 0 1 2.727-2.472 38.488 38.488 0 0 1 2.953-2.191 37.93 37.93 0 0 1 6.484-3.465A37.686 37.686 0 0 1 30.184.715a36.835 36.835 0 0 1 3.64-.54A37.235 37.235 0 0 1 37.5-.007c1.227 0 2.453.063 3.676.184a37.554 37.554 0 0 1 14 4.246 37.862 37.862 0 0 1 3.156 1.89 37.805 37.805 0 0 1 2.957 2.192c.95.781 1.86 1.605 2.727 2.473a38.048 38.048 0 0 1 2.472 2.726c.778.95 1.508 1.934 2.192 2.957a36.828 36.828 0 0 1 1.89 3.156 37.277 37.277 0 0 1 2.813 6.793c.36 1.172.656 2.364.894 3.567.243 1.207.422 2.418.54 3.64.12 1.223.183 2.45.183 3.676Zm0 0"
       id="path6"
       style="fill:#6d0796;fill-opacity:1" />
  </g>
  <g
     clip-path="url(#b)"
     id="g7">
    <path
       fill="#fff"
       d="M56.11 22.27c0 .496-.094.972-.286 1.433-.187.457-.46.863-.812 1.215a3.688 3.688 0 0 1-1.215.812c-.461.192-.938.286-1.438.286-.496 0-.972-.094-1.433-.286a3.648 3.648 0 0 1-1.215-.812 3.688 3.688 0 0 1-.813-1.215 3.7 3.7 0 0 1 0-2.871c.188-.457.461-.863.813-1.215a3.648 3.648 0 0 1 1.215-.812c.46-.192.937-.285 1.433-.285.5 0 .977.093 1.438.285.457.187.863.46 1.215.812.351.352.625.758.812 1.215.192.461.285.938.285 1.438Zm0 0"
       id="path7" />
  </g>
  <g
     clip-path="url(#c)"
     id="g8">
    <path
       fill="#fff"
       d="M22.246 11.352c-5.992 0-10.894 4.902-10.894 10.894v30.5c0 5.992 4.902 10.895 10.894 10.895h30.5c5.992 0 10.895-4.903 10.895-10.895v-30.5c0-5.992-4.903-10.894-10.895-10.894Zm0 4.355h30.5a6.504 6.504 0 0 1 6.535 6.54v30.5a6.5 6.5 0 0 1-6.535 6.534h-30.5a6.504 6.504 0 0 1-6.539-6.535v-30.5a6.507 6.507 0 0 1 6.54-6.539Zm0 0"
       id="path8" />
  </g>
  <g
     clip-path="url(#d)"
     id="g9">
    <path
       fill="#fff"
       d="M37.5 24.41c-7.23 0-13.09 5.86-13.09 13.09 0 7.23 5.86 13.09 13.09 13.09 7.23 0 13.09-5.86 13.09-13.09 0-7.23-5.86-13.09-13.09-13.09Zm0 23.563c-5.785 0-10.473-4.688-10.473-10.473 0-5.785 4.688-10.473 10.473-10.473 5.785 0 10.473 4.688 10.473 10.473 0 5.785-4.688 10.473-10.473 10.473Zm0 0"
       id="path9" />
  </g>
  <g
     clip-path="url(#e)"
     id="g10">
    <path
       fill="#fff"
       d="M37.496 23.746c-7.598 0-13.75 6.152-13.75 13.75s6.152 13.754 13.75 13.754S51.25 45.094 51.25 37.496s-6.156-13.75-13.754-13.75Zm0 24.754c-6.078 0-11-4.926-11-11.004 0-6.078 4.922-11 11-11s11.004 4.922 11.004 11S43.574 48.5 37.496 48.5Zm0 0"
       id="path10" />
  </g>
</svg>
