<svg xmlns="http://www.w3.org/2000/svg" width="100" viewBox="0 0 75 75" height="100" version="1.0"><defs><clipPath id="a"><path d="M11.352 11.352h52.5v52.5h-52.5Zm0 0"/></clipPath><clipPath id="b"><path d="M48.61 18.52H56V26h-7.39Zm0 0"/></clipPath><clipPath id="c"><path d="M24.41 24.41h26.25v26.25H24.41Zm0 0"/></clipPath><clipPath id="d"><path d="M23.746 23.746h27.75v27.75h-27.75Zm0 0"/></clipPath></defs><path fill="#fff" d="M75 37.5c0 1.227-.063 2.453-.184 3.676a35.873 35.873 0 0 1-.539 3.64 36.409 36.409 0 0 1-.894 3.57 38.103 38.103 0 0 1-1.238 3.466 37.42 37.42 0 0 1-1.575 3.324 36.828 36.828 0 0 1-1.89 3.156 37.805 37.805 0 0 1-2.192 2.957c-.781.95-1.605 1.86-2.472 2.727a38.047 38.047 0 0 1-2.727 2.472 37.805 37.805 0 0 1-2.957 2.192 36.828 36.828 0 0 1-3.156 1.89 37.42 37.42 0 0 1-3.324 1.575 38.103 38.103 0 0 1-3.465 1.238c-1.176.36-2.367.656-3.57.894a35.873 35.873 0 0 1-3.641.54c-1.223.12-2.45.183-3.676.183-1.23 0-2.453-.063-3.676-.184a35.711 35.711 0 0 1-3.64-.539 37.686 37.686 0 0 1-7.035-2.133 37.42 37.42 0 0 1-3.325-1.574 36.895 36.895 0 0 1-6.113-4.082 38.047 38.047 0 0 1-2.727-2.472 37.143 37.143 0 0 1-4.664-5.684 36.828 36.828 0 0 1-1.89-3.156 36.356 36.356 0 0 1-1.575-3.324 38.132 38.132 0 0 1-1.242-3.465 38.774 38.774 0 0 1-.894-3.57A37.29 37.29 0 0 1 0 37.5c0-1.231.059-2.454.18-3.677.12-1.222.3-2.437.539-3.64.242-1.204.539-2.395.894-3.57a37.713 37.713 0 0 1 4.707-9.95 38.488 38.488 0 0 1 2.192-2.953c.781-.95 1.601-1.86 2.472-2.727a37.143 37.143 0 0 1 2.727-2.472 36.895 36.895 0 0 1 6.113-4.082 37.713 37.713 0 0 1 6.79-2.816 38.774 38.774 0 0 1 3.57-.895 38.031 38.031 0 0 1 3.64-.54A37.231 37.231 0 0 1 37.5 0a37.29 37.29 0 0 1 7.316.719c1.204.242 2.395.539 3.57.894 1.173.36 2.329.77 3.466 1.242 1.132.47 2.242.993 3.324 1.575a36.828 36.828 0 0 1 3.156 1.89 37.143 37.143 0 0 1 5.684 4.664 38.047 38.047 0 0 1 2.472 2.727 36.895 36.895 0 0 1 4.082 6.113 37.42 37.42 0 0 1 1.575 3.324 37.686 37.686 0 0 1 2.132 7.036c.243 1.203.422 2.418.54 3.64.12 1.223.183 2.446.183 3.676Zm0 0"/><g clip-path="url(#a)"><path fill="#011627" d="M22.246 11.352c-5.992 0-10.894 4.902-10.894 10.894v30.5c0 5.992 4.902 10.895 10.894 10.895h30.5c5.992 0 10.895-4.903 10.895-10.895v-30.5c0-5.992-4.903-10.894-10.895-10.894Zm0 4.355h30.5a6.504 6.504 0 0 1 6.535 6.54v30.5a6.5 6.5 0 0 1-6.535 6.534h-30.5a6.504 6.504 0 0 1-6.539-6.535v-30.5a6.507 6.507 0 0 1 6.54-6.539Zm0 0"/></g><g clip-path="url(#b)"><path fill="#011627" d="M55.84 22.133c0 .48-.09.941-.274 1.383a3.514 3.514 0 0 1-.785 1.172c-.336.34-.726.601-1.172.785a3.564 3.564 0 0 1-1.382.273c-.48 0-.942-.09-1.383-.273a3.514 3.514 0 0 1-1.172-.785 3.514 3.514 0 0 1-.785-1.172 3.568 3.568 0 0 1-.278-1.383c0-.48.094-.942.278-1.383.183-.445.445-.836.785-1.172.336-.34.726-.601 1.172-.785a3.564 3.564 0 0 1 1.383-.273c.48 0 .941.09 1.382.273.446.184.836.445 1.172.785.34.336.602.727.785 1.172.184.441.274.902.274 1.383Zm0 0"/></g><g clip-path="url(#c)"><path fill="#011627" d="M37.5 24.41c-7.23 0-13.09 5.86-13.09 13.09 0 7.23 5.86 13.09 13.09 13.09 7.23 0 13.09-5.86 13.09-13.09 0-7.23-5.86-13.09-13.09-13.09Zm0 23.563c-5.785 0-10.473-4.688-10.473-10.473 0-5.785 4.688-10.473 10.473-10.473 5.785 0 10.473 4.688 10.473 10.473 0 5.785-4.688 10.473-10.473 10.473Zm0 0"/></g><g clip-path="url(#d)"><path fill="#011627" d="M37.496 23.746c-7.598 0-13.75 6.152-13.75 13.75s6.152 13.754 13.75 13.754S51.25 45.094 51.25 37.496s-6.156-13.75-13.754-13.75Zm0 24.754c-6.078 0-11-4.926-11-11.004 0-6.078 4.922-11 11-11s11.004 4.922 11.004 11S43.574 48.5 37.496 48.5Zm0 0"/></g></svg>