<svg xmlns="http://www.w3.org/2000/svg" width="50" viewBox="0 0 37.5 37.5" height="50" version="1.0"><defs><clipPath id="b"><path d="M27 18h5.895v4H27Zm0 0"/></clipPath><clipPath id="c"><path d="M3 14h29.895v22H3Zm0 0"/></clipPath><clipPath id="d"><path d="M2.55 2.074h30.345V37H2.55Zm0 0"/></clipPath><clipPath id="g"><path d="M.922 17.473h28.863v17.015H.922Zm0 0"/></clipPath><clipPath id="h"><path d="M2 .45h27.785V16H2Zm0 0"/></clipPath><clipPath id="i"><path d="M1 .45h28.785V18H1Zm0 0"/></clipPath><clipPath id="f"><path d="M0 0h31v35H0z"/></clipPath><filter x="0%" y="0%" width="100%" height="100%" id="a"><feColorMatrix values="0 0 0 0 1 0 0 0 0 1 0 0 0 0 1 0 0 0 1 0" color-interpolation-filters="sRGB"/></filter><mask id="e"><g filter="url(#a)"><path fill-opacity=".15" d="M-3.75-3.75h45v45h-45z"/></g></mask></defs><path fill="#6d0796" d="m12.91 20.465-1.887.965-1.507-.953c-.047-.817.68-1.707 1.699-1.707.933 0 1.695.757 1.695 1.695ZM30.441 14.605a.336.336 0 0 1-.308-.093c-.317-.309-.817-.219-1.086.09-.117.132-.258.16-.383.117-.246-.086-.734-.121-1.082.238-.016.02.004.047.027.04.297-.114.63-.208.953-.15.262.044.336.153.415.188.043.02.058 0 .046-.035a.27.27 0 0 1 .082-.281c.25-.227.622-.324.954-.11.171.106-.075.258.156.176.5-.172.84.113.746.578-.008.028-.016.051-.02.094-.015.113.2-.082.176-.383-.027-.34-.355-.531-.676-.469ZM25.902 13.984c-.054-.144-.343-.37-.715-.367a.38.38 0 0 1-.363-.297c-.18-.773-1.48-.87-1.972-.195a.316.316 0 0 1-.364.102c-.582-.23-1.129.093-1.199.308-.035.113.05-.004.3-.094.247-.09.567-.117.849-.035.246.051.484.367.457.219-.118-.7 1.074-.945 1.578-.523.261.226.238.543.054.761-.078.09.032.106.13.075.87-.313 1.155.207 1.25.148.019-.016.003-.074-.005-.102ZM9.336 15.785a.182.182 0 0 1-.219-.125c-.086-.308-.383-.457-.707-.445-.484.02-.738.344-.566.32.062-.012.113-.055.242-.098.363-.113.8-.054.914.317.043.148-.059.246-.074.297-.02.047-.004.058.043.054.094-.015.246-.148.52-.164.257-.015.363.082.456.106.176.043-.113-.379-.61-.262ZM20.438 17.82H19.19c-.12 0-.12.149 0 .149h1.247c.12 0 .12-.149 0-.149ZM23.063 19.777h-.618c-.12 0-.12.153 0 .153h.617c.118 0 .118-.153 0-.153ZM7.629 18.027h-.613c-.121 0-.121.153 0 .153h.613c.121 0 .121-.153 0-.153ZM26.238 12.055h-.797c-.12 0-.12.152 0 .152h.797c.121 0 .121-.152 0-.152ZM15.082 14.121h-.797c-.12 0-.12.152 0 .152h.797c.121 0 .121-.152 0-.152ZM20.555 14.473h-.367c-.122 0-.122.152 0 .152h.367c.12 0 .12-.152 0-.152ZM6.14 16.695h-.367c-.12 0-.12.153 0 .153h.368c.12 0 .12-.153 0-.153ZM13.598 13.348c-.575 1.62-.563 1.535-.512 1.55a.696.696 0 0 1 .16.067c.055.023.004.113.668-1.77.012-.03-.02-.058-.05-.047-.122.055-.22.063-.266.2ZM16.664 15.762c-.004 0-.004-.004 0 .008v-.008ZM20.453 12.398 17.68 14.77a.037.037 0 0 0 .023.066c.082 0 .164.008.246.02.024.003-.18.167 2.942-2.5.027-.024.007-.067-.028-.06-.195.036-.281-.01-.41.102ZM15.043 17.023l-2.293 1.961a.066.066 0 0 0-.004.09c.027.028.055.063.082.094.024.027.063.031.086.008 2.484-2.121 2.324-1.961 2.281-2.004a.345.345 0 0 1-.093-.133c-.008-.023-.04-.031-.059-.016ZM12.207 17.277l-.402 1.137c-.012.031.008.066.039.078.043.012.082.028.12.043a.06.06 0 0 0 .079-.035c.43-1.219.437-1.188.379-1.2-.152-.03-.195-.077-.215-.023ZM7.254 15.875a.1.1 0 0 0-.016.14l2.496 2.915c.028.03.086.023.102-.024a.08.08 0 0 1 .05-.043c.052-.011.067-.066.036-.097l-2.492-2.91c-.032-.04-.09-.043-.13-.016l-.046.035ZM10.96 18.348c-.812-4.34-.745-4.043-.82-4.102a1.228 1.228 0 0 1-.18-.172c-.023-.027-.065-.004-.058.028l.813 4.293c.008.03.039.054.074.046a.663.663 0 0 1 .121-.023c.035-.008.059-.04.05-.07ZM25.523 17.723c-.007.172.004.207-.035.215-6.191 1.152-5.793 1.09-5.824 1.066l-.144-.11c-.04-.03-.028-.097.027-.105 6.289-1.172 5.98-1.137 5.976-1.066ZM30.41 17.023l-3.191.594c-.024.004-.051-.015-.051-.043-.004-.156-.02-.199.031-.21l3.176-.59a.095.095 0 0 1 .11.085c0 .051.019.145-.075.164ZM6.387 14.629 4.195 12.07c-.027-.035-.074-.004-.062.035.281.696-.188.055 2.054 2.68.055.063.118.02.18-.023a.088.088 0 0 0 .02-.133ZM6.59 18.965l2.57.91c.031.012.067-.008.078-.04.012-.042.028-.081.043-.12a.06.06 0 0 0-.035-.078l-2.594-.914a.089.089 0 0 0-.12.09c.003.058-.012.128.058.152Zm0 0"/><g clip-path="url(#b)"><path fill="#6d0796" d="M31.953 21.629c-.121 0 .16.043-3.879-2.375-.265-.16-.027-.55.235-.387 0 0 2.324 1.434 3.765 2.344.192.121.106.418-.12.418Zm0 0"/></g><path fill="#6d0796" d="M11.023 21.656c-.234 0-.312-.32-.101-.43 2.035-1.038 1.926-1.011 2.047-.98l2.379.645a.226.226 0 0 1-.118.437l-2.296-.621c-1.97 1.008-1.832.95-1.91.95ZM7.57 27.242c-.015-.008-.02 0-.18 0-.05.004-.027.031-.269.024l-.504-.008c-.191 0-.066.035-.418 0-.113-.012-.199.066-.18.105.032.059.192.075.278.07.121-.019.273-.038.402-.023.106.016.059 0 .227-.004.09-.004.11.004.191.004.086 0 .196-.015.242-.015.16-.012.153.023.223-.106.008-.016.008-.039-.012-.047ZM23.977 32.973c-.27-.008-.293 0-.383.035-.04.012-.043.012-.051.023-.031.043.055.11.145.121l.226.004c.059 0 .211-.035.227-.086.011-.047-.09-.093-.164-.097ZM23.324 33.04c-.012-.048-.015-.071-.062-.075-.153-.016-.219.086-.18.144.027.036.047.07.168.04.035-.012.09-.047.074-.11ZM23.684 31.05c.023.036.039.071.164.04.058-.016.086-.067.082-.094-.024-.074-.02-.094-.098-.094-.105 0-.195.082-.148.149ZM31.05 33.875c-.01-.027-.042-.012-.152-.012-.101 0-.082.024-.242.024-.004 0-.554-.004-.57-.008-.016-.004-.164.02-.3.008-.099-.008-.212-.032-.278.039-.028.031-.035.054.004.078.07.043.148.05.23.05.168-.011.024-.023.356-.027.047 0 .093.008.136.008.047 0 .012-.004.157-.008.101-.004.105.004.18.004.156 0 .171-.02.386-.02.04 0 .105-.1.094-.136ZM29.102 33.867c-.266-.008-.29 0-.383.031-.04.016-.043.016-.051.024-.031.047.055.113.145.121.015.004.222.008.226.008.059 0 .211-.035.227-.086.011-.05-.086-.098-.164-.098ZM28.45 33.93c-.012-.047-.016-.07-.063-.075-.153-.015-.219.09-.18.145.027.035.043.07.168.04.035-.009.09-.048.074-.11ZM29.7 31.11c.03-.032.038-.055 0-.079-.122-.082-.274-.05-.376-.039-.176.02-.304-.031-.37-.02-.032 0-.407.016-.68.048-.06.007-.114.187-.02.156.043-.012.086-.012.133-.016.023 0 .043-.012.054-.015.102-.02.204-.008.301-.02.094-.016.348.004.38.012.019.008.187 0 .206 0 .133-.008.285.062.375-.028ZM21.875 32.2c-.156-.098-.285-.024-.57-.04-.22-.012.11-.035-.477-.004-.015 0-.383.032-.39.04-.06.034-.086.156-.032.156.028 0 .012-.012.137-.02.082-.008.031-.027.238-.031.153-.004.117-.012.227-.012.207 0 .222.02.355.02.184 0 .078-.02.356.015.11.012.234-.074.156-.125ZM29.656 32.14c-.015.047.086.098.16.102.278.016.297.004.383-.023.043-.016.047-.016.055-.024.031-.043-.047-.113-.14-.125a6.25 6.25 0 0 0-.235-.011c-.055 0-.207.03-.223.082ZM24.469 29.934c-.059-.008-.106-.004-.184-.008-.125-.012-.34.043-.25.125.067.062.145.054.3.058.15.004.13 0 .263-.043.043-.011.011-.113-.13-.132ZM30.512 32.191c.011.043.015.07.062.075.078.011.16-.012.188-.086.011-.032 0-.043-.008-.059-.024-.035-.043-.066-.164-.039-.043.012-.082.05-.082.082 0 .008 0 .008.004.027ZM11.434 29.02c-.036 0-.594.066-.844.02-.375-.075-.36-.067-1.047-.067-.172 0-.285.027-.57.047-.286.02-.203.023-.274.093-.008.004-.011.008-.011.016-.028.066.253.094.355.09.27-.012.238-.078.664-.055.41-.012.414.004.8.059.079.004-.007 0 .497 0 .289 0 .348-.051.523-.133.036-.016.008-.07-.093-.07ZM17.09 29.531c-.063 0-.102.016-.29.028-.784.035-.327-.016-.882-.063-.238-.02-2.785-.05-3.16-.012-.551.067-.375-.004-.488.114-.075.035.109.156.585.07.665-.121 4.305.246 4.344-.086 0-.008-.07-.05-.11-.05ZM21.926 30.75c-.23-.047-.293-.043-.45-.047-.187-.047-.288-.023-.453.008-.214.043-.195.035-.484.039-.242.004-.223.02-.258.082-.023.05-.054.07.094.11.11.027.234 0 .332-.008l.2-.008c.241-.051.206-.047.331-.047.09 0 .14.004.149.004.054-.004.09-.012.156-.012.09 0 .184.027.277.027.075 0 .102-.015.149-.023.02-.004.023-.004.031-.012.016-.015.023-.02.02-.035-.008-.043-.04-.066-.094-.078ZM13.91 28.094c.082 0 .422-.032.406-.11-.011-.054-.164-.039-.48-.062-.438-.031-.469.062-.906.015-.184-.015-.282-.007-.461-.003-.754.027-1.356-.063-1.614.03-.023.009-.046.06-.058.079-.016.012-.016.035 0 .043.117.059.586.012 1.242.047.125 0 .27-.004.461-.012.617.027.543.035.766-.004.34-.055.445-.023.644-.023ZM22.605 29.273c-.003 0-.378.016-.421.004-.141-.043-.254-.027-.344-.02.004.016.008.048-.004 0-.106.013-.176.02-.27.013-.101-.012-.355-.028-.441.035-.012.008-.02.035-.023.047-.024.082-.043.085.09.109a.555.555 0 0 0 .18-.004c.179-.02.233.008.288.008.16-.012.203-.035.45-.004.003 0 .144-.012.171-.012.196 0 .235.04.403-.082.007-.008.007-.02.011-.035.004-.027-.05-.055-.09-.055ZM17.035 32.61c-.277-.008-.3.003-.379.03-.035.016-.062.016-.062.047.008.06.09.094.148.102.035.004.242.008.266.004.312-.05.172-.18.027-.184ZM16.383 32.672c-.012-.047-.016-.07-.059-.074-.152-.02-.222.086-.183.14.02.035.039.07.164.04.035-.008.093-.044.078-.106ZM9.23 28.273c.27.008.293 0 .38-.03.035-.013.062-.016.062-.048-.008-.058-.094-.093-.149-.101-.035-.004-.246-.004-.265-.004-.309.05-.18.18-.028.183ZM9.883 28.21c.012.048.015.071.058.08.153.015.223-.09.184-.145-.02-.036-.04-.07-.164-.04-.035.008-.094.043-.078.106ZM21.574 34.488c-.039-.004-.074-.004-.137-.004-.054 0-.042-.007-.042.024l-.004-.024c-.098-.007-.258.032-.274.086-.015.047.086.094.16.098.274.008.297-.004.38-.035.034-.008.066-.012.062-.047-.004-.055-.09-.09-.145-.098ZM12.145 30.488c.015.043.19.047.234-.066.012-.024 0-.04-.008-.05-.023-.04-.039-.071-.164-.044-.043.012-.082.05-.082.086 0 .004.008.05.02.074ZM6.973 29.617c-.133-.004-.082-.004-.121-.004-.004 0-.098.004-.106 0-.172-.082-.277.004-.398 0-.254-.004-.211.02-.293.082-.016.008-.028.016-.028.02-.027.027.028.07.067.086.074.039.164.004.218 0 .102-.012.063.015.16-.012.063-.02.048-.023.192 0 .016.004.012.004.059-.004.129-.023.207.047.293-.05.054-.04.004-.118-.043-.118ZM12.938 31.527c-.141-.004-.083-.004-.122-.004-.007 0-.097.004-.105 0-.172-.082-.281.004-.399 0-.257-.003-.21.02-.296.082-.012.008-.024.016-.028.016-.027.031.028.074.07.09.075.039.165.004.215-.004.106-.008.063.02.165-.012.062-.015.042-.02.187.004.016.004.016.004.063-.004.124-.023.203.047.289-.05.058-.04.003-.118-.04-.118ZM6.445 28.371c.094.016.18.024.258-.035.031-.016.059-.043.04-.07-.04-.063-.071-.043-.184-.055-.004 0-.227-.023-.243-.016-.207-.082-.355.02-.57.004-.098-.012-.324-.023-.402.04a.11.11 0 0 0-.016.05c-.016.066-.039.094.059.106.05.003.058.011.18-.008.16-.024.203.004.257.004.114 0 .114-.04.403-.02.058.004.07-.023.218 0Zm0 0"/><g clip-path="url(#c)"><path fill="#6d0796" d="M32.059 28.727c-.043-.102-.094-.082-.739-.094-.789-.153-1.597-.477-2.394-.684-.48-.12-.79-.152-1.617-.289 0-.422.003-.8.03-.91.048-.18.552-.637.9-1.05.027.468.34.847.726 1.109.48.328 2.375 1.234 2.93 1.484-.137-2.262.25-4.422.117-6.855l-.746-.465a.225.225 0 0 0-.082-.29c-2.442-1.542-2.883-1.82-2.887-1.824a.218.218 0 0 0-.203-.011l-1.172.507c-.11-3.476-.102-3.765-.2-4.277-.14-.762-.632-.855-.8.777a47.171 47.171 0 0 0-.117 3.985l-3.508 1.52-4.598-3.454a.225.225 0 0 0-.324.055c-.598.914-2.043 2.824-3.816 4.828-4.653-2.969-4.297-2.777-4.434-2.742l-4.953 1.285c-.27.07-.195.48.09.438.074.507.144 1.105-.246 1.722-.094.145-.207.278-.317.414-.203.004-.289.13-.316.328-.082.528-.153 1.168.383 1.176.168 0 .328-.058.496-.035.328.047.707.258 1.746.34.832.062 1.449-.082 2.312.234.895.328 2.043.582 2.813.016.582-.426 3.426-3.473 5.457-6.145.101.735.77 1.075 1.219 1.524.367.355.32.554.308 1.066-.008.418.059.762.336 1.055 0 .363-.004 3.078 0 4.008 0 .035-.05.039-.055.004-.054-.602-.128-1.446-.14-1.547-.012-.098-.082-.332-.297-.328-.356.007-.238 1.207-.191 1.558.046.363.12.727.21 1.082.008.043-.05.067-.07.028-.418-.801-.52-1.442-.765-2.375-.024-.094-.04-.508-.297-.508-.422.043-.102 1.582-.051 1.789.172.703.379 1.472.836 2.043.133.164.441.324.652.418.137.062.223.199.215.347-.063 1.93-.086 4.446.008 5.258.027.219.148.196.277.18.031-.004.078 0 .04-.004-.032-.004-.067 0-.102.004 0-.004-.22-11.969-.04-14.758.02-.281.188-.297.188.012-.078 6.914.098 8.16.063 14.746.203.02-.028.035.613.043.062 0 .121-.067.098-.133-.118-.336-.133-5.367-.094-5.516.047-.18.215-.164.336-.304.722-.832.652-.895.625-2.989-.008-.378.015-.785-.063-1.16-.074-.34-.32-.355-.414-.12-.328.847-.039 2.152-.242 2.98-.023.105-.18.082-.172-.028.074-.957.094-2.277.027-3.343-.011-.16-.02-.329-.109-.461-.094-.141-.297-.239-.406-.133.004-.028.012-.25.015-.348.352.145 1.258.39 1.903.957 1.39 1.223 1.133 2.653 4.82 3.45-.09 2.699-.121 6.206.008 7.34.039.32.219.269.406.25-.672-22.598.004-20.68.004-20.622-.004.504-.05 1.914-.043 2.844.004 1.117.313 9.55.414 17.812.059.012.188.02.672.028.09 0 .172-.094.14-.184-.187-.531-.148-7.183-.148-7.187 1.617.316 3.07.82 4.606 1.757.058.036.136-.011.136-.074v-1.207c0-.101.036-.25-.007-.347ZM6.734 24.52c-.203-.004-.199.003-.32.003-.148 0-.351-.062-.672-.062-.445 0-.398-.016-.617.023-.102.02-.188.036-.29.036-.07 0-.25-.02-.3-.067-.012-.012-.008-.031.008-.039l.023-.031c.051-.078.055-.031.461-.082.313-.031.16-.028.653-.028.437 0 .48.012.738.063.39.078.98-.09.965.035 0 .024-.07.05-.102.063-.168.093-.355.09-.547.086Zm.649.785a.57.57 0 0 1-.145.047 1.831 1.831 0 0 1-.293 0c-.078-.004-.172-.055-.16-.102.02-.05.172-.082.235-.082.003 0 .207.008.226.012.09.011.168.082.137.125Zm.277.078c-.047-.008-.05-.031-.058-.078l-.004-.024c0-.035.039-.074.086-.082.12-.027.136.004.16.043.039.059-.035.16-.184.14Zm4.293-.813c-.004.004-.055.063-.07.075-.012.007-.024.007-.043.003-.113-.007-.29-.105-.383-.164a1.42 1.42 0 0 0-.246-.109c.004-.016.012-.05-.004 0-.078-.031-.191-.066-.297-.168-.035-.035-.379-.184-.383-.187-.035-.016-.07-.067-.054-.09.011-.016.015-.024.027-.028.203-.03.219.02.395.106.027.012.156.062.16.062.207.14.258.137.406.2.055.027.082.07.254.132a.78.78 0 0 1 .164.075c.02.015.098.062.074.093Zm.621-.547c-.008.004-.011.004-.02.004-.093.035-.046.055-.144.02-.004 0-.562-.215-.566-.215-.074-.031-.102-.047-.371-.18-.391-.191-.43-.222-.637-.382-.215-.168-.73-.344-.774-.364-.074-.039-.117-.105-.035-.11.332-.015.48.114.739.231.507.235.113.125 1.054.59.188.094.332.098.52.188.066.03.285.172.234.218Zm.528-.644a.03.03 0 0 1-.016.008c-.027.011-.043.031-.078.043-.133.043-.852-.434-1.453-.723-.164-.078-.254-.117-.41-.219-.383-.258-.403-.152-.81-.406-.269-.168-.413-.227-.398-.277.024-.075.32.039.415.09.171.09.257.171.582.277.234.078.132.039.68.355.769.371.316.172.777.418.152.078.773.36.71.434Zm4.992 5.926c-.168-.157-.723-.512-1.063-1.871-.113-.489-.18-.73-.218-1.582.011-.446.007.523.562 2.12.348.989.832 1.442.719 1.333Zm.039-1.117c-.008-.07-.395-.82-.262-2.36.024-.152.004-.07.04.324.05.543.234 2.07.222 2.035Zm1.469.726c.125-.074.234-.27.289-.402.183-.438.097-.793.12-1.723.016-.496 0-.254.11-1.02.137-.656-.012-.074.055 1.31.012.358.035.722-.024 1.015-.152.738-.597.84-.55.82Zm-.215 6.156c-.086-.074-.09-.062 0-.027v.027Zm-.121-10.52c.047-.25.02-.07.023-.027 0 .004.059 1.418.063 1.883a19.49 19.49 0 0 1-.11 2.45c-.066-1.169-.078-3.227.024-4.305Zm3.289-2.808c.004 0 .008.02.011.035l-.011-.035Zm-1.32 2.387c-.094.023-.172-.059-.255-.121-.113-.09-.19-.113-.253-.156-.004-.004-.45-.309-.473-.325-.133-.086-.133-.058-.215-.109-.09-.059-.129-.066-.121-.094 0-.012.012-.023.02-.027.128-.074.101-.047.242.035.043.023.136.07.21.117.055.035.09.067.137.094.172.113.13.062.211.133.223.187.446.191.535.387.02.039 0 .054-.039.066Zm.683.465c-.121-.032-.117-.008-.379-.192-.062-.047-.117-.14-.082-.172.043-.035.188.02.238.051l.184.133c.11.09.086.191.039.18Zm.215.21c-.04-.03-.028-.05-.012-.097 0-.004.004-.02.008-.023.047-.075.21 0 .226.05.04.13-.113.16-.222.07Zm.457-3.074 3.223-1.398c.003.117.003 5.094.019 5.496.008.297-1.012.102-1.527-1.933-.114-.438-.22-.883-.332-1.325-.035-.129-.055-.707-.418-.707-.008.016-.43-.074-.262 1.407-.516-.48-.668-.696-.703-1.54Zm2.703 5.676c-.313-.289-.117-.035-.578-.566-.238-.29-.465-.746-.504-.82-.55-1.215-.734-2.383-.793-3.672.008-.407-.059-.153.34 1.48.234.965.5 1.848.976 2.738.274.516.653.93.559.84Zm2.848-3.11c-.23 1.118-.914 1.247-.805 1.196a.66.66 0 0 0 .164-.144c.293-.36.41-.828.445-1.29.063-1.175-.156-1.468.2-3.413.07-.29.027-.082.035-.028.004.028-.055 1.067-.004 2.188.02.53.05 1.058-.035 1.492Zm-1.203-4.452.976-.426c-.09.902-.434 1.305-.926 1.984Zm.152 4.62c0-.023-.008-.206-.016-.5.184.212.38.415.586.61-.125.293-.496.77-.57-.11Zm0 0"/></g><g clip-path="url(#d)"><path fill="#6d0796" d="M23.242 36.484c-1.148 0-2.367-.558-4.02-.859-2.14-.39-5.507-1.867-6.73-2.223-1.738-.507-6.023-2.21-7.46-2.664-1.641-.52-2.34-.793-2.419-1.156-.062-.281.211-.371.211-.45-.027-1.51.89-1.07 1.18-1.386.148-.16.277-.617.203-.836-.05-.144-.074-.144-.227-.148-.136-.004-.347-.012-.515-.211-.227-.266-.121-.524-.059-.68.07-.172.094-.215-.07-.508-.563-.988.2-1.539.488-1.992.375-.59.274-1.144.18-1.789-.102-.75.066-.969.437-1.234.2-.145.215-.168.297-.356.137-.312.235-.441.715-.676.25-.12.574-.285.445-.582-.085-.203-.351-.398-.57-.52-.238-.124-.379.083-.621-.366-.031-.063-.027-.106-.027-.16.023-.336.015-.422.011-.438-.152-.512-.386-.652-.796-1.281-.438-.672-.368-.73-.301-1.504.035-.434.054-.688.222-.762a7.234 7.234 0 0 0-.09-.89c-.16-.704-.39-.68-.246-1.508-.128-.352-.152-.762-.19-1.157-.075-.773.202-.168-.106-1.02-.07-.194-.125-.401-.075-.605-.129-.37-.105-.605.29-.773.722-.309.964-.355 1.265-.102.09-.035.246-.148.457-.085.324.097.395.351.441.515.043.149.063.223.215.262.258-.2.27-.2.297-.332.07-.363.215-.313.254-.637.274-2.332-.406-2.672-.164-3.984.172-.938.727-.684 1.309-.723.582-.039 1.168-.207 1.812-.207 3.277.008 6.656.172 9.93 0 1.152-.059 2.297-.246 3.473-.187 1.535.074 1.148.187 3.207.082 5.3-.27 6.195-.133 6.289.289.187.828-.016 1.918 0 2.718.773 32.414.043 30.282-.059 30.403-.191.222-.172.078-6.793.523-1.066.074-1.531.2-2.09.2ZM3.102 29.52c.406.312 2.312.843 2.875 1.054 8.285 3.102 5.687 2 7.691 2.754 6.262 2.363 4.625 1.473 7.336 2.254 2.473.719 2.226.395 4.297.254 2.719-.184 6.258-.371 6.433-.39.004-1.97.008-30.75.032-31.13.039-.535.074-1.082-.012-1.52-.55-.26-4.516-.058-5.836.009-3.105.156-2.188-.282-5.484.015-4.622.414-10.325-.097-12.133.192-.559.09-.793.12-1.23.101-.372-.011-.395-.015-.462.356-.214 1.164.446 1.578.168 3.953a1.117 1.117 0 0 1-.226.562c-.043.063-.028.25-.156.414-.122.145-.29.254-.415.356a.219.219 0 0 1-.168.047c-.535-.067-.628-.403-.687-.602-.043-.156-.059-.18-.133-.203-.062.004-.332.238-.617 0-.09-.078-.133-.113-.8.168a.645.645 0 0 0-.083.043c0 .027.016.09.067.23.07.176-.102.114.05.54.352.968.075.562.13 1.125.034.363.062.793.187 1.09.015.042.02.085.011.128-.14.762.047.582.235 1.407.004.02.148.937.07 1.156-.02.047-.058.156-.156.215-.008.062-.024.18-.043.402-.063.742-.117.684.23 1.219.399.613.672.793.852 1.406.027.094.031.254.012.563.004.011.011.019.015.027.11 0 .223.015.387.101.508.27.984.739.8 1.278-.124.355-.437.508-.69.633-.387.183-.407.238-.497.449-.113.258-.18.344-.449.539-.23.164-.332.223-.25.805.102.73.211 1.37-.246 2.093-.289.45-.672.688-.61 1.196.044.378.489.586.227 1.23-.222.55.54-.07.809.723.133.39-.055 1.027-.297 1.289-.191.21-.43.254-.617.285-.293.055-.453.082-.442.789a.51.51 0 0 1-.175.395Zm28.636 6.062Zm0 0"/></g><g mask="url(#e)"><g clip-path="url(#f)" transform="translate(2 2)"><g clip-path="url(#g)"><path fill="#002368" d="m29.785 34.297-10.21.191L.921 27.375a.467.467 0 0 0 .004-.148v-.079c0-.03.004-.074.031-.09.004-.003.012-.003.016-.003.015-.004.027-.004.035-.016.008-.008.008-.027.004-.062l-.004-.008-.004-.004c-.016-.012-.031-.012-.043-.012H.953v-.047c0-.047 0-.093-.012-.136v-.016c-.007-.027-.015-.067-.003-.09.007-.02.019-.02.042-.016.016 0 .032 0 .047-.003.059-.012.118-.102.16-.165.008-.007.016-.02.024-.027a.878.878 0 0 0 .117-.234.346.346 0 0 1 .055-.098c.023-.039.05-.074.058-.121.004-.008.004-.016.004-.027.004-.032.008-.067.035-.075.016-.007.04.004.06.016.01.004.019.012.03.012.043.015.09.027.137.039l.086.023a.03.03 0 0 0 .016.004c.035.012.074.024.109.012a.07.07 0 0 0 .035-.024.158.158 0 0 1 .035-.02c.012-.003.02-.007.028-.01.007 0 .015-.005.023-.009a.38.38 0 0 0 .043-.02.148.148 0 0 1 .05-.023c.02-.003.032.004.052.012.02.008.039.016.062.012.11-.02.11-.106.113-.18 0-.02 0-.035.004-.05a.342.342 0 0 1 .102-.188.085.085 0 0 1 .031-.02c.016-.011.031-.02.043-.03a.119.119 0 0 0 .02-.028.122.122 0 0 1 .015-.024.14.14 0 0 1 .04-.027c.019-.012.038-.023.05-.047.043-.074.043-.16.043-.246l.004-.012v-.035c.004-.066.008-.14-.043-.191-.031-.035-.035-.04-.016-.082l.004-.012c.016-.035.031-.07.024-.113-.004-.04-.024-.051-.047-.063-.008-.008-.02-.012-.028-.023a.29.29 0 0 1-.066-.082c-.016-.028-.02-.059-.027-.086a.24.24 0 0 0-.051-.117c-.027-.04-.05-.059-.106-.063h-.121c-.05 0-.07.016-.093.035-.008.008-.02.016-.032.024-.027.02-.043.008-.066-.024-.008-.008-.016-.02-.027-.027-.024-.02-.047-.02-.07-.02-.02 0-.036 0-.051-.007-.012-.008-.016-.024-.024-.043-.008-.024-.02-.051-.047-.059s-.047.008-.058.02c-.016.011-.024.02-.04.02-.019-.005-.027-.024-.035-.048-.004-.008-.007-.02-.015-.027-.016-.024-.031-.047-.047-.067a.283.283 0 0 1-.078-.16.38.38 0 0 1 .062-.254c.102-.144.157-.382.055-.554a.03.03 0 0 1-.008-.016c-.023-.035-.043-.07-.035-.094.004-.015.016-.027.04-.035.003-.004.007-.004.01-.008.036-.015.071-.027.048-.09-.016-.042-.047-.058-.078-.07a.33.33 0 0 0-.067-.02c-.047-.011-.094-.023-.117-.058-.027-.062.016-.11.062-.16.032-.035.063-.07.07-.113a.406.406 0 0 0-.054-.301c-.012-.02-.05-.074-.039-.11.004-.015.016-.027.035-.03a.508.508 0 0 1 .203 0c.012.003.024.007.035.007.024.008.043.016.075.012.054-.004.074-.04.097-.086.012-.024.02-.047.032-.07.007-.028.02-.051.03-.079.013-.023.032-.046.048-.066.02-.02.035-.035.047-.059.011-.02.02-.043.03-.062.02-.05.044-.098.098-.129.004-.004.008-.004.016-.008.035-.02.078-.039.094-.074.015-.027.012-.055.012-.082v-.031c.054-.008.109-.051.105-.117 0-.02-.008-.036-.012-.051-.004-.016-.007-.032-.007-.047a.48.48 0 0 1 .011-.113.426.426 0 0 1 .024-.043c.011-.02.027-.043.027-.07a.798.798 0 0 0 0-.137v-.024c-.004-.039-.004-.074-.004-.113.004-.012 0-.027 0-.04 0-.03 0-.066.008-.09.02-.05.094-.116.152-.116h.012v-.016c.004-.043.004-.098-.023-.137l-.016-.015c-.004-.008-.008-.012-.008-.031-.004-.016 0-.032 0-.043 0-.008.004-.02.004-.028v-.015c0-.043.004-.098-.004-.137a.116.116 0 0 0-.027-.043l-.02-.031c-.004-.012-.004-.02-.004-.032v-.023l-.011-.047a.604.604 0 0 1-.016-.121c0-.027-.008-.05-.012-.074-.004-.012-.008-.024-.008-.035a.17.17 0 0 1 0-.102c.012-.02.028-.023.051-.023.016-.004.028-.004.043-.012a.069.069 0 0 0 .035-.05.072.072 0 0 0-.023-.067.104.104 0 0 0-.04-.024c-.019-.008-.023-.011-.019-.039.004-.015.02-.031.032-.047a.161.161 0 0 0 .039-.05c.007-.036-.012-.07-.051-.098-.012-.004-.02-.012-.031-.016-.02-.011-.028-.015-.028-.047 0-.03.004-.074.02-.101.011-.024.027-.024.05-.024.016 0 .032 0 .051-.007.024-.012.047-.04.07-.063a.04.04 0 0 1 .02-.023c.008-.008.012-.016.02-.024.023-.023.043-.047.074-.07.031-.024.031-.043.031-.063 0-.011 0-.023.004-.039.008-.027.02-.03.04-.035a.075.075 0 0 0 .038-.012c.031-.015.043-.066.047-.109.008-.035.004-.074.004-.113a.443.443 0 0 1 .004-.125c.008-.035.027-.063.047-.094.004-.008.011-.016.015-.02.004-.007.008-.015.012-.027.012-.023.027-.05.047-.058.016-.004.031-.004.047-.004.02 0 .043.004.062-.008a.786.786 0 0 0 .125-.066c.016-.012.028-.032.036-.044a.136.136 0 0 1 .023-.035h.027c.012.004.024.004.032 0 .015 0 .023-.007.035-.011.004-.004.011-.004.015-.008.063-.024.102-.067.141-.106.016-.015.031-.03.047-.05.004 0 .004-.004.008-.004h5.515l2.739 2.02-2.102 6.558 5.492-4.063 5.5 4.063-2.14-6.559 2.75-2.02h7.851l.457 16.825"/></g><g clip-path="url(#h)"><path fill="#fed800" d="M11.422 15.418H6.84l-3.8-.918v-.004c-.005-.008-.005-.016-.005-.023-.004-.028-.004-.059-.02-.086-.027-.047-.058-.094-.085-.14l-.024-.036c-.008-.016-.015-.024-.02-.035-.015-.028-.023-.043-.07-.063a.36.36 0 0 1-.093-.066.68.68 0 0 1-.098-.078.198.198 0 0 1-.035-.063.224.224 0 0 1-.016-.027.736.736 0 0 0-.054-.094c-.032-.047-.063-.09-.079-.14-.011-.028-.015-.055-.02-.079-.007-.05-.015-.101-.05-.144a1.01 1.01 0 0 0-.07-.063c-.031-.027-.063-.054-.086-.09-.024-.042-.027-.12-.031-.18-.004-.019-.004-.034-.004-.046-.02-.211.007-.402.039-.566a2.228 2.228 0 0 1 .027-.172v-.059c0-.023 0-.047.008-.07.008-.024.023-.031.047-.043a.1.1 0 0 0 .05-.04c.02-.034 0-.097-.015-.12a.859.859 0 0 0-.14-.13c-.036-.027-.04-.034-.012-.081.02-.032.043-.043.086-.055.015-.008.035-.012.05-.016.051-.015.102-.027.149-.058.043-.028.043-.055.043-.09-.004-.004-.004-.012-.004-.02V11.5a.32.32 0 0 0-.004-.105c-.004-.04-.016-.079-.024-.118-.007-.039-.02-.078-.023-.113-.012-.066-.012-.133-.016-.2 0-.027 0-.058-.003-.089 0-.04-.004-.074-.008-.113 0-.016 0-.032-.004-.047Zm-6.2-12.254c-.007.523-.019 1.031-.027 1.426l-.011.547-.004.191v.012c-.004.012-.004.015-.012.015H5.16c-.043 0-.074.086-.094.141l-.015.047c-.008.02-.02.035-.028.05-.011.024-.023.052-.035.075-.004.012-.008.027-.011.043-.004.031-.012.059-.028.074-.023.027-.058.027-.09.027-.023 0-.046 0-.058.012-.008.008-.008.024-.008.047.004.016.004.031.008.047.011.055.02.113-.012.172 0 .004-.004.012-.008.02-.015.027-.031.054-.043.085-.004.008-.008.012-.008.02a.139.139 0 0 0-.015.035c0 .008 0 .016.004.023 0 .016 0 .032-.004.043-.024.059-.125.051-.2.047-.015 0-.027-.004-.038-.004-.043 0-.09.008-.13.012-.03.004-.062.004-.093.008-.082.004-.121-.035-.16-.078a.915.915 0 0 0-.063-.059c-.011-.008-.031-.015-.05-.027-.06-.024-.126-.055-.133-.117 0-.028.011-.043.023-.059.012-.012.02-.023.02-.039 0-.023-.016-.055-.051-.09-.012-.008-.02-.02-.031-.027l-.047-.047c-.012-.016-.024-.031-.035-.05a.426.426 0 0 0-.051-.067c-.055-.059-.117-.117-.196-.114-.03 0-.062.024-.093.043a.092.092 0 0 1-.035.024c-.004.004-.008.008-.012.008-.031.02-.078.05-.11.023-.015-.016-.015-.035-.015-.055-.004-.015-.004-.027-.008-.03 0-.009-.008-.009-.016-.009-.027 0-.046.024-.066.055-.023.035-.055.082-.113.063-.04-.012-.043-.047-.047-.079 0-.007 0-.02-.004-.03-.008-.04-.023-.044-.063-.052a.762.762 0 0 0-.261-.02.17.17 0 0 0-.106.06.085.085 0 0 0-.015.019c-.02.031-.047.074-.086.05a.059.059 0 0 1-.028-.034c-.011-.028-.02-.036-.043-.028-.015.004-.03.028-.046.047-.012.012-.02.027-.032.035a.635.635 0 0 1-.191.102l10.93 9.621h.257l.192-.605ZM12.97.625c-1.438.008-2.79.008-3.961.004l1.808 4.8 3.059 8.118.64-1.996Zm4.773-.031L16.2 11.477l.653 2.015L21.727.551c-1.266.015-2.618.031-3.985.043Zm11.125-.14c-.09.003-.629.01-1.484.023L17.262 14.773l.207.645h.215L29 5.453Zm.266 9.816-9.856 5.148 4.547.008 5.414-1.305-.105-3.851"/></g><g clip-path="url(#i)"><path fill="#c0032c" d="M4.574 16.828c.004-.055-.027-.09-.054-.125l-.004-.008c-.028-.03-.051-.054-.075-.082l-.03-.031c-.016-.016-.024-.035-.036-.055a.132.132 0 0 0-.023-.047.501.501 0 0 0-.18-.144.233.233 0 0 1-.082-.07l-.024-.028c-.023-.027-.054-.062-.058-.093l-.004-.008h-.008c-.031-.004-.058-.028-.082-.051a.176.176 0 0 0-.074-.055c-.012-.004-.024-.008-.04-.008-.019-.003-.042-.007-.05-.02-.008-.007-.008-.015-.012-.03 0-.016 0-.036-.015-.051-.02-.027-.055-.035-.082-.047-.008 0-.016-.004-.02-.004-.027-.012-.055-.027-.082-.043l-.039-.023a.43.43 0 0 1-.129-.082c-.023-.028-.023-.047-.023-.078v-.02c0-.043.007-.086.02-.129.003-.031.01-.062.015-.094.008-.109-.035-.175-.09-.257l-.004-.008c-.016-.024-.039-.047-.062-.07-.047-.051-.098-.102-.086-.157l.011-.035c.012-.027.024-.059.008-.094-.008-.02-.023-.031-.039-.043a.11.11 0 0 1-.035-.039c-.004-.011-.004-.031-.004-.05 0-.02 0-.044-.008-.063-.004-.016-.011-.027-.015-.035a.137.137 0 0 1-.02-.051l3.8.918h-.382l2.781 2.055H3.723a.254.254 0 0 1 .09-.035.44.44 0 0 0 .093-.032c.016-.011.035-.015.051-.023A.19.19 0 0 0 4 17.367c.04-.015.043-.043.047-.066.004-.012.004-.02.008-.031.011-.028.02-.028.039-.036.008 0 .02-.004.031-.011.043-.02.059-.055.074-.094a.079.079 0 0 0 .016-.031.641.641 0 0 1 .082-.094c.012-.008.023-.02.031-.027.047-.047.086-.059.156-.079.004 0 .012 0 .016-.003.035-.008.07-.016.074-.067Zm8.446-1.41L2.09 5.797l-.016.004c-.02.004-.039.004-.054.008-.024 0-.043 0-.063.007l-.023.012a.321.321 0 0 0-.082.043c-.055.043-.04.074-.016.121.008.02.02.04.023.059l.004.008a.196.196 0 0 1 .008.046c0 .024-.008.032-.016.043-.003.008-.003.012-.007.02-.012.023-.004.035.004.05a.063.063 0 0 1 .015.028c.016.035 0 .09-.015.125a.236.236 0 0 0-.028.117v.04a.235.235 0 0 0 0 .074c.004.015.012.027.02.043.008.015.015.03.02.046.003.016 0 .036 0 .055 0 .024-.005.047.003.059.004.015.016.015.035.02.016 0 .036.003.051.015.02.015.024.043.031.07 0 .012.004.02.008.027.008.02.016.04.028.063.007.008.011.02.015.031l.008.012c.031.066.066.137.05.223-.003.03-.019.046-.034.062-.008.004-.016.012-.024.02-.015.02-.015.05-.02.078-.003.011-.003.023-.007.035a.33.33 0 0 1-.02.066c-.008.02-.015.04-.02.059 0 .039.009.07.012.101.008.032.016.063.016.102 0 .04 0 .078.004.117v.129c0 .035 0 .067-.008.102 0 .004-.004.008-.004.011-.008.032-.011.055.012.075.008.007.02.011.027.015.02.012.043.024.051.055.012.039-.004.098-.02.133l-.011.023c-.016.024-.024.043-.016.074.008.024.024.04.035.059a.431.431 0 0 1 .102.254c0 .043-.008.082-.016.121a.532.532 0 0 0-.015.117v.067a.403.403 0 0 1-.016.18c-.062.14-.027.355.024.5a.318.318 0 0 0 .082.12.52.52 0 0 1 .054.075c.047.07.07.171.082.254.004.039.016.078.024.117.015.058.035.125.035.195 0 .043 0 .086.004.133l8.996 4.703ZM10.816 5.43 9.008.629C7.273.617 5.93.594 5.278.547c0 .133-.024 1.262-.048 2.39-.003.079-.003.153-.007.227l8.246 11.649.406-1.266ZM12.97.625l1.547 10.926.851-2.66.832 2.586L17.742.594c-1.61.011-3.238.027-4.773.031Zm8.758-.074-4.875 12.941.41 1.281L27.382.477c-1.296.02-3.331.046-5.655.074ZM29 5.453l-11.316 9.965h1.593l9.856-5.148Zm.328 12.02-.09-3.352-5.414 1.305h.434l-2.781 2.047h7.851"/></g><path fill="#cf5c10" d="M24.258 15.426h-.434l-4.547-.008H17.47l-.207-.645-.41-1.28-.653-2.016-.832-2.586-.851 2.66-.641 1.996-.406 1.265-.192.606h-6.82l2.781 2.055 2.739 2.02-2.102 6.558 5.492-4.063 5.5 4.063-2.14-6.559 2.75-2.02Zm-8.906 2.047v-.004.004"/></g></g></svg>