<svg xmlns="http://www.w3.org/2000/svg" width="100" viewBox="0 0 75 75" height="100" version="1.0"><defs><clipPath id="a"><path d="M15 13h45v49H15Zm0 0"/></clipPath><clipPath id="b"><path d="M60.043 13.133 20.711 66.137l-6.02-4.473 39.329-53Zm0 0"/></clipPath><clipPath id="c"><path d="m20.71 66.137 39.333-53.004-6.023-4.469-39.329 53Zm0 0"/></clipPath><clipPath id="d"><path d="M12 13h51v49H12Zm0 0"/></clipPath><clipPath id="e"><path d="m22.8 5.766 40.102 56.148-10.375 7.41-40.101-56.148Zm0 0"/></clipPath><clipPath id="f"><path d="m22.8 5.766 40.102 56.148-10.375 7.41-40.101-56.148Zm0 0"/></clipPath><clipPath id="g"><path d="M20 17h35v41H20Zm0 0"/></clipPath><clipPath id="h"><path d="M24.063 15.176 54.195 57.25l-3.656 2.621-30.133-42.074Zm0 0"/></clipPath><clipPath id="i"><path d="m25.344 14.262 30.566 42.68-4.875 3.495-30.57-42.683Zm0 0"/></clipPath></defs><path fill="#fff" d="M75 37.5c0 1.227-.063 2.453-.184 3.676a35.873 35.873 0 0 1-.539 3.64 36.409 36.409 0 0 1-.894 3.57 38.103 38.103 0 0 1-1.238 3.466 37.42 37.42 0 0 1-1.575 3.324 36.828 36.828 0 0 1-1.89 3.156 37.805 37.805 0 0 1-2.192 2.957c-.781.95-1.605 1.86-2.472 2.727a38.047 38.047 0 0 1-2.727 2.472 37.805 37.805 0 0 1-2.957 2.192 36.828 36.828 0 0 1-3.156 1.89 37.42 37.42 0 0 1-3.324 1.575 38.103 38.103 0 0 1-3.465 1.238c-1.176.36-2.367.656-3.57.894a35.873 35.873 0 0 1-3.641.54c-1.223.12-2.45.183-3.676.183-1.23 0-2.453-.063-3.676-.184a35.711 35.711 0 0 1-3.64-.539 37.686 37.686 0 0 1-7.035-2.133 37.42 37.42 0 0 1-3.325-1.574 36.895 36.895 0 0 1-6.113-4.082 38.047 38.047 0 0 1-2.727-2.472 37.143 37.143 0 0 1-4.664-5.684 36.828 36.828 0 0 1-1.89-3.156 36.356 36.356 0 0 1-1.575-3.324 38.132 38.132 0 0 1-1.242-3.465 38.774 38.774 0 0 1-.894-3.57A37.29 37.29 0 0 1 0 37.5c0-1.231.059-2.454.18-3.677.12-1.222.3-2.437.539-3.64.242-1.204.539-2.395.894-3.57a37.713 37.713 0 0 1 4.707-9.95 38.488 38.488 0 0 1 2.192-2.953c.781-.95 1.601-1.86 2.472-2.727a37.143 37.143 0 0 1 2.727-2.472 36.895 36.895 0 0 1 6.113-4.082 37.713 37.713 0 0 1 6.79-2.816 38.774 38.774 0 0 1 3.57-.895 38.031 38.031 0 0 1 3.64-.54A37.231 37.231 0 0 1 37.5 0a37.29 37.29 0 0 1 7.316.719c1.204.242 2.395.539 3.57.894 1.173.36 2.329.77 3.466 1.242 1.132.47 2.242.993 3.324 1.575a36.828 36.828 0 0 1 3.156 1.89 37.143 37.143 0 0 1 5.684 4.664 38.047 38.047 0 0 1 2.472 2.727 36.895 36.895 0 0 1 4.082 6.113 37.42 37.42 0 0 1 1.575 3.324 37.686 37.686 0 0 1 2.132 7.036c.243 1.203.422 2.418.54 3.64.12 1.223.183 2.446.183 3.676Zm0 0"/><g clip-path="url(#a)"><g clip-path="url(#b)"><g clip-path="url(#c)"><path fill="#011627" d="M22.55 61.988c-.675-.004-1.39-.015-1.585-.015-.195-.004-1.61-.016-3.14-.028-1.536-.011-2.794-.039-2.802-.062-.007-.067 15.922-21.57 26.32-35.528l9.938-13.34.324.008c.172.004 1.016.008 1.868.016.851.008 1.707.016 1.906.02.625.004 3.676.03 4.14.03.247 0 .465.013.481.028.02.012-7.172 9.738-18.094 24.453L23.781 62Zm0 0"/></g></g></g><g clip-path="url(#d)"><g clip-path="url(#e)"><g clip-path="url(#f)"><path fill="#011627" d="M28.21 13.438c-.073-.032-.773-.04-9.16-.118-3.238-.027-6.081-.058-6.312-.058-.238 0-.437 0-.457.015-.035.024 34.422 48.254 34.5 48.282.07.03.774.043 9.16.117 3.239.031 6.082.058 6.313.058.234.004.437 0 .453-.011.04-.028-34.422-48.258-34.496-48.285Zm0 0"/></g></g></g><g clip-path="url(#g)"><g clip-path="url(#h)"><g clip-path="url(#i)"><path fill="#fff" d="m26.762 17.605-1.262-.007c-.156 0-1.285-.008-2.508-.02-1.222-.015-2.226-.008-2.23.012-.008.055 12.402 17.41 20.508 28.676l7.742 10.77h.258c.136 0 .808.007 1.488.015l1.52.008c.5.004 2.933.023 3.3.03.2.005.371-.007.387-.015.015-.011-5.59-7.86-14.098-19.742l-14.12-19.719Zm0 0"/></g></g></g></svg>